<?xml version="1.0" encoding="UTF-8" standalone="no"?>
<!-- Created with Inkscape (http://www.inkscape.org/) -->
<svg
   xmlns:dc="http://purl.org/dc/elements/1.1/"
   xmlns:cc="http://creativecommons.org/ns#"
   xmlns:rdf="http://www.w3.org/1999/02/22-rdf-syntax-ns#"
   xmlns:svg="http://www.w3.org/2000/svg"
   xmlns="http://www.w3.org/2000/svg"
   xmlns:sodipodi="http://sodipodi.sourceforge.net/DTD/sodipodi-0.dtd"
   xmlns:inkscape="http://www.inkscape.org/namespaces/inkscape"
   width="35.433071"
   height="141.73228"
   id="svg2"
   sodipodi:version="0.32"
   inkscape:version="0.46"
   version="1.0"
   sodipodi:docname="5mm-LED.svg"
   inkscape:output_extension="org.inkscape.output.svg.inkscape">
  <defs
     id="defs4">
    <inkscape:perspective
       sodipodi:type="inkscape:persp3d"
       inkscape:vp_x="0 : 526.18109 : 1"
       inkscape:vp_y="0 : 1000 : 0"
       inkscape:vp_z="744.09448 : 526.18109 : 1"
       inkscape:persp3d-origin="372.04724 : 350.78739 : 1"
       id="perspective10" />
  </defs>
  <sodipodi:namedview
     id="base"
     pagecolor="#ffffff"
     bordercolor="#666666"
     borderopacity="1.0"
     inkscape:pageopacity="0"
     inkscape:pageshadow="2"
     inkscape:zoom="11.313709"
     inkscape:cx="-1.5519025"
     inkscape:cy="123.02425"
     inkscape:document-units="mm"
     inkscape:current-layer="layer1"
     showgrid="true"
     units="mm"
     inkscape:snap-bbox="true"
     inkscape:object-paths="false"
     inkscape:object-nodes="true"
     inkscape:bbox-paths="true"
     inkscape:bbox-nodes="true"
     objecttolerance="10"
     gridtolerance="10"
     guidetolerance="10"
     inkscape:window-width="1264"
     inkscape:window-height="750"
     inkscape:window-x="0"
     inkscape:window-y="14"
     showguides="true"
     inkscape:guide-bbox="true">
    <inkscape:grid
       type="xygrid"
       id="grid2388"
       units="mm"
       visible="true"
       enabled="true"
       empspacing="10"
       spacingx="0.5mm"
       spacingy="0.5mm" />
    <inkscape:grid
       type="xygrid"
       id="grid3172"
       units="mm"
       visible="false"
       enabled="true"
       spacingx="0.25mm"
       spacingy="0.25mm"
       color="#000000"
       opacity="0.1254902"
       empspacing="0" />
  </sodipodi:namedview>
  <metadata
     id="metadata7">
    <rdf:RDF>
      <cc:Work
         rdf:about="">
        <dc:format>image/svg+xml</dc:format>
        <dc:type
           rdf:resource="http://purl.org/dc/dcmitype/StillImage" />
      </cc:Work>
    </rdf:RDF>
  </metadata>
  <g
     inkscape:label="Ebene 1"
     inkscape:groupmode="layer"
     id="layer1">
    <path
       style="fill:#ffffff;fill-rule:evenodd;stroke:#000000;stroke-width:0.35433070999999999;stroke-linecap:round;stroke-linejoin:miter;stroke-opacity:1;stroke-miterlimit:4;stroke-dasharray:none;fill-opacity:1"
       d="M 8.8582677,15.944883 C 8.8582677,10.629922 12.401575,5.3149617 17.716535,5.3149617 C 23.031495,5.3149617 26.574803,10.629922 26.574803,15.944883 C 26.574803,21.259844 26.574803,35.433072 26.574803,35.433072 L 7.0866142,35.433072 L 7.0866142,32.775592 L 8.8582677,32.775592 C 8.8582677,32.775592 8.8582677,21.259844 8.8582677,15.944883 z"
       id="path2390"
       sodipodi:nodetypes="czzccccz" />
    <path
       style="fill:#ffffff;fill-rule:evenodd;stroke:#000000;stroke-width:0.35433070999999999;stroke-linecap:butt;stroke-linejoin:miter;stroke-opacity:1;stroke-miterlimit:4;stroke-dasharray:none;fill-opacity:1"
       d="M 12.401575,134.64567 L 14.173228,134.64567 L 14.173228,42.519686 L 15.059055,42.519686 L 15.059055,38.976379 L 14.173228,38.976379 L 14.173228,32.775592 L 12.401575,31.003938 L 12.401575,28.346458 L 15.944882,28.346458 L 15.944882,26.574804 L 12.401575,24.803151 L 12.401575,23.031497 L 10.629921,23.031497 L 10.629921,31.889765 L 12.401575,33.661418 L 12.401575,38.976379 L 11.515748,38.976379 L 11.515748,42.519686 L 12.401575,42.519686 L 12.401575,134.64567 z"
       id="path3168"
       sodipodi:nodetypes="ccccccccccccccccccccc" />
    <path
       style="fill:#ffffff;fill-rule:evenodd;stroke:#000000;stroke-width:0.35433071999999999;stroke-linecap:butt;stroke-linejoin:miter;stroke-miterlimit:4;stroke-dasharray:none;stroke-opacity:1;fill-opacity:1"
       d="M 21.259843,127.55906 L 23.031496,127.55906 L 23.031496,42.519686 L 23.917323,42.519686 L 23.917323,38.976379 L 23.031496,38.976379 L 23.031496,33.661418 L 24.80315,31.889765 L 24.80315,26.574804 L 23.031496,26.574804 L 23.031496,23.031497 L 15.059055,23.031497 L 15.059055,24.803151 L 21.259843,28.346458 L 23.031496,28.346458 L 23.031496,31.003938 L 21.259843,32.775592 L 21.259843,38.976379 L 20.374016,38.976379 L 20.374016,42.519686 L 21.259843,42.519686 L 21.259843,127.55906 z"
       id="path3174"
       sodipodi:nodetypes="cccccccccccccccccccccc" />
    <path
       style="fill:none;fill-rule:evenodd;stroke:#000000;stroke-width:0.35433071;stroke-linecap:butt;stroke-linejoin:miter;stroke-opacity:1;stroke-miterlimit:4;stroke-dasharray:none"
       d="M 11.515748,23.031497 C 12.401575,21.259844 15.059055,21.259844 15.944882,23.031497 C 16.830709,24.803151 19.488189,24.803151 20.374016,23.031497"
       id="path3176"
       sodipodi:nodetypes="czc" />
  </g>
</svg>
